<svg id="Layer_2" data-name="Layer 2" xmlns="http://www.w3.org/2000/svg" width="378.819" height="378.819" viewBox="0 0 378.819 378.819">
  <g id="Layer_1" data-name="Layer 1">
    <g id="noun-bird-1183752" transform="translate(45.881 92.218)">
      <path id="Path_1" data-name="Path 1" d="M387.633,224.051c-10.437.871-20.856,1.574-31.334,2.1-14.889-18.926-41.232-23.99-55.428-23.99-26.225,0-55.7,14.141-76.279,53.791-29.938-7.741-60.6-19.419-80.941-41.547a166.021,166.021,0,0,0-2,25.7c0,38.153,11.336,68.593,40.279,92.181-23.547,17.79-52.126,24.532-81.347,27,36.922,23.907,81.922,35.977,126.548,35.977,113.584,0,140.188-100.178,140.188-134.777a70.081,70.081,0,0,0-.456-8.184,226.44,226.44,0,0,1,20.8-28.241ZM325.477,255a11.555,11.555,0,1,1,11.555-11.555A11.555,11.555,0,0,1,325.477,255Z" transform="translate(-100.58 -202.16)" fill="#43d5db"/>
    </g>
    <g id="Path_2" data-name="Path 2">
      <path id="Path_1-2" data-name="Path 1" d="M189.412,0C294.019,0,378.819,84.8,378.819,189.407s-84.8,189.412-189.407,189.412S0,294.019,0,189.407,84.8,0,189.412,0Z" fill="none"/>
      <path id="Path_2-2" data-name="Path 2" d="M371.206,136.078a36.036,36.036,0,0,1-15.176,7.978,172.4,172.4,0,0,1,6.04,45.352c0,95.205-77.456,172.657-172.657,172.657S16.75,284.613,16.75,189.407,94.206,16.75,189.412,16.75A172.417,172.417,0,0,1,324.075,81.47,35.923,35.923,0,0,1,339.521,73.9,189.063,189.063,0,0,0,189.412,0C84.8,0,0,84.8,0,189.407S84.8,378.815,189.412,378.815s189.407-84.8,189.407-189.407A189.481,189.481,0,0,0,371.206,136.078Z" fill="#43d5db"/>
    </g>
  </g>
</svg>
